# xmcd
# Track frame offsets:
# 150
# 15855
# 31958
# 42963
# 60920
# 73712
# 95119
# 116242
# 128517
# 141133
# 154662
# 171557
# 187825
#
# Disc length: 2654 seconds
# Revision: 0
# Processed by: cddbd v1.5.1PL0 Copyright (c) Steve Scherf et al.
# Submitted via: VisiTrax 2.9.10.220 - For more info visit www.synapsa.com
#
DISCID=a80a5c0d
DTITLE=HighLiners - The Ultimate Country Line Dancing Album - CD2
DYEAR=1900
DGENRE=Line Dancing
TTITLE0=American Honky Tonk Bar Association
TTITLE1=Move Over Madonna
TTITLE2=If The Good Die Young
TTITLE3=He Thinks He'll Keep Her
TTITLE4=Third Rock From The Sun
TTITLE5=Fast As You
TTITLE6=Ain't Goin' Down (`Till The Sun Comes up)
TTITLE7=Cowboy Boogie
TTITLE8=Be My Baby Tonight
TTITLE9=Indian Outlaw
TTITLE10=Baby Likes To Rock It
TTITLE11=Rock my World
TTITLE12=Holdin Heaven
EXTD=
EXTT0=
EXTT1=
EXTT2=
EXTT3=
EXTT4=
EXTT5=
EXTT6=
EXTT7=
EXTT8=
EXTT9=
EXTT10=
EXTT11=
EXTT12=
PLAYORDER=
